<svg xmlns="http://www.w3.org/2000/svg" xmlns:xlink="http://www.w3.org/1999/xlink" width="51" height="51" viewBox="0 0 51 51">
  <defs>
    <clipPath id="clip-path">
      <rect id="Rectangle_1266" data-name="Rectangle 1266" width="32.866" height="32.866" fill="#3a3a3a"/>
    </clipPath>
  </defs>
  <g id="ico" transform="translate(-676 -226)">
    <circle id="Ellipse_20" data-name="Ellipse 20" cx="25.5" cy="25.5" r="25.5" transform="translate(676 226)" fill="#fff"/>
    <g id="ico-2" data-name="ico" transform="translate(685.067 235.067)">
      <g id="Group_1616" data-name="Group 1616" clip-path="url(#clip-path)">
        <path id="Path_659" data-name="Path 659" d="M16.433,0A16.433,16.433,0,1,0,32.866,16.433,16.447,16.447,0,0,0,16.433,0ZM31.112,15.556H25.5c-.175-5.5-1.7-10.176-4.094-12.924a14.721,14.721,0,0,1,9.708,12.924M15.556,1.871V15.556H9.181C9.357,8.538,12.164,2.69,15.556,1.871m0,15.439V31c-3.392-.877-6.2-6.725-6.374-13.685ZM17.31,31V17.31h6.374C23.509,24.269,20.7,30.118,17.31,31m0-15.439V1.871c3.392.877,6.2,6.725,6.374,13.685ZM11.462,2.573C9.123,5.322,7.544,10,7.368,15.5H1.754A14.858,14.858,0,0,1,11.462,2.573M1.754,17.31H7.369c.175,5.5,1.7,10.176,4.094,12.924A14.722,14.722,0,0,1,1.754,17.31M21.4,30.235c2.339-2.749,3.918-7.427,4.094-12.924h5.614A14.722,14.722,0,0,1,21.4,30.235" fill="#3a3a3a"/>
      </g>
    </g>
  </g>
</svg>
